<svg width="32" height="32" viewBox="0 0 32 32" fill="none" xmlns="http://www.w3.org/2000/svg">
<path d="M9.21339 7.33339L12.2801 10.3867L10.3867 12.2801L7.33339 9.21339L4.28005 12.2801L2.38672 10.3867L5.45339 7.33339L2.38672 4.28005L4.28005 2.38672L7.33339 5.45339L10.3867 2.38672L12.2801 4.28005L9.21339 7.33339ZM29.6134 21.6134L27.7201 19.7201L24.6667 22.7867L21.6134 19.7201L19.7201 21.6134L22.7867 24.6667L19.7201 27.7201L21.6134 29.6134L24.6667 26.5467L27.7201 29.6134L29.6134 27.7201L26.5467 24.6667L29.6134 21.6134ZM27.2001 9.10672L22.9067 14.6667L20.8001 12.9734L22.3601 10.9734C20.3703 11.3776 18.5141 12.2757 16.9624 13.5851C15.4106 14.8946 14.2131 16.5733 13.4801 18.4667C14.6406 19.3036 15.4638 20.5277 15.8013 21.9181C16.1388 23.3085 15.9683 24.7738 15.3205 26.0496C14.6728 27.3254 13.5905 28.3277 12.2688 28.8757C10.9471 29.4238 9.4731 29.4815 8.11262 29.0384C6.75215 28.5953 5.59479 27.6807 4.84932 26.4594C4.10385 25.2382 3.81934 23.7907 4.04711 22.3782C4.27489 20.9656 4.99995 19.6809 6.09151 18.7559C7.18307 17.8309 8.56927 17.3264 10.0001 17.3334C10.3494 17.3348 10.6977 17.3705 11.0401 17.4401C11.9638 15.1476 13.4388 13.1183 15.3343 11.5321C17.2298 9.94597 19.4873 8.85185 21.9067 8.34672L20.0001 6.90672L21.6934 4.80005L27.2001 9.10672ZM13.3334 23.3334C13.3334 22.6741 13.1379 22.0296 12.7716 21.4815C12.4053 20.9333 11.8848 20.5061 11.2757 20.2538C10.6666 20.0015 9.99635 19.9355 9.34975 20.0641C8.70315 20.1927 8.1092 20.5102 7.64303 20.9764C7.17685 21.4425 6.85939 22.0365 6.73077 22.6831C6.60215 23.3297 6.66816 23.9999 6.92045 24.609C7.17275 25.2181 7.59999 25.7387 8.14815 26.105C8.69632 26.4712 9.34078 26.6667 10.0001 26.6667C10.8841 26.6667 11.732 26.3155 12.3571 25.6904C12.9822 25.0653 13.3334 24.2174 13.3334 23.3334Z" fill="#008000"/>
</svg>
