<svg width="32" height="32" viewBox="0 0 32 32" fill="none" xmlns="http://www.w3.org/2000/svg">
<path d="M26 21V20C26 19.7348 26.1053 19.4804 26.2929 19.2929C26.4804 19.1054 26.7347 19 27 19C27.2652 19 27.5195 19.1054 27.7071 19.2929C27.8946 19.4804 28 19.7348 28 20V30H30V20C29.9992 19.2046 29.6828 18.442 29.1204 17.8796C28.558 17.3171 27.7954 17.0008 27 17C26.4834 17.0033 25.9766 17.1415 25.53 17.401C25.1252 16.7458 24.4805 16.2745 23.7333 16.0877C22.9861 15.9009 22.1955 16.0133 21.53 16.401C21.261 15.9727 20.8878 15.6196 20.4454 15.3746C20.003 15.1297 19.5057 15.0008 19 15C18.6585 15.0035 18.3201 15.0661 18 15.185V10C18 9.20435 17.6839 8.44129 17.1213 7.87868C16.5587 7.31607 15.7956 7 15 7C14.2043 7 13.4412 7.31607 12.8786 7.87868C12.316 8.44129 12 9.20435 12 10V21.105L9.76496 19.575V19.576C9.15429 19.1298 8.39757 18.9308 7.64638 19.0188C6.89519 19.1069 6.20502 19.4755 5.71412 20.0509C5.22322 20.6263 4.96785 21.3659 4.99916 22.1216C5.03046 22.8773 5.34615 23.5932 5.88296 24.126L12.323 30L13.67 28.522L7.29196 22.704C7.19919 22.6118 7.12562 22.5021 7.0755 22.3812C7.02538 22.2604 6.99971 22.1308 6.99996 22C6.99996 21.8143 7.05168 21.6322 7.14931 21.4743C7.24695 21.3163 7.38664 21.1886 7.55275 21.1056C7.71885 21.0225 7.90481 20.9874 8.08977 21.004C8.27473 21.0207 8.45139 21.0886 8.59996 21.2L14 24.895V10C14 9.73478 14.1053 9.48043 14.2929 9.29289C14.4804 9.10536 14.7347 9 15 9C15.2652 9 15.5195 9.10536 15.7071 9.29289C15.8946 9.48043 16 9.73478 16 10V21H18V18C18 17.7348 18.1053 17.4804 18.2929 17.2929C18.4804 17.1054 18.7347 17 19 17C19.2652 17 19.5195 17.1054 19.7071 17.2929C19.8946 17.4804 20 17.7348 20 18V21H22V19C22 18.7348 22.1053 18.4804 22.2929 18.2929C22.4804 18.1054 22.7347 18 23 18C23.2652 18 23.5195 18.1054 23.7071 18.2929C23.8946 18.4804 24 18.7348 24 19V21H26Z" fill="#008000"/>
<path d="M28 12H22V10H28V4H4V10H8V12H4C3.46973 11.9995 2.96133 11.7886 2.58637 11.4136C2.21141 11.0387 2.00053 10.5303 2 10V4C2.00053 3.46973 2.21141 2.96133 2.58637 2.58637C2.96133 2.21141 3.46973 2.00053 4 2H28C28.5303 2.00053 29.0387 2.21141 29.4136 2.58637C29.7886 2.96133 29.9995 3.46973 30 4V10C29.9995 10.5303 29.7886 11.0387 29.4136 11.4136C29.0387 11.7886 28.5303 11.9995 28 12V12Z" fill="#008000"/>
</svg>
