<svg width="32" height="32" viewBox="0 0 32 32" fill="none" xmlns="http://www.w3.org/2000/svg">
<path fill-rule="evenodd" clip-rule="evenodd" d="M18.222 9.32596C17.7855 9.62861 17.2931 9.84129 16.7735 9.95158C16.2539 10.0619 15.7176 10.0676 15.1957 9.96836C14.6739 9.86914 14.1771 9.66699 13.7342 9.37369C13.2914 9.0804 12.9114 8.70184 12.6164 8.26011C12.3214 7.81837 12.1174 7.32231 12.0162 6.80087C11.915 6.27943 11.9186 5.74306 12.027 5.22306C12.1353 4.70305 12.3461 4.20983 12.6471 3.77216C12.9481 3.3345 13.3332 2.96117 13.78 2.67396C14.6622 2.09128 15.7392 1.88154 16.7755 2.09059C17.8119 2.29964 18.7233 2.91048 19.3106 3.78958C19.8979 4.66868 20.1133 5.74454 19.9097 6.78198C19.7061 7.81942 19.1 8.73406 18.224 9.32596H18.222ZM17.112 4.33796C16.8942 4.18127 16.6471 4.07001 16.3854 4.0108C16.1237 3.95159 15.8528 3.94564 15.5887 3.99331C15.3247 4.04098 15.0729 4.1413 14.8485 4.28828C14.624 4.43526 14.4314 4.62591 14.2821 4.84887C14.1329 5.07183 14.03 5.32254 13.9796 5.58608C13.9292 5.84963 13.9324 6.12061 13.989 6.3829C14.0455 6.64519 14.1542 6.89342 14.3087 7.11281C14.4631 7.33221 14.6602 7.51829 14.888 7.65996C15.3282 7.92738 15.8547 8.01465 16.3576 7.90358C16.8606 7.79251 17.3013 7.49167 17.588 7.06372C17.8747 6.63578 17.9852 6.11374 17.8965 5.60634C17.8079 5.09894 17.5268 4.64531 17.112 4.33996V4.33796ZM22.332 4.39796C22.9088 4.00996 23.6029 3.83524 24.2947 3.90387C24.9865 3.9725 25.6327 4.28019 26.122 4.77396C26.4707 5.12546 26.7278 5.55715 26.8708 6.03116C27.0138 6.50518 27.0383 7.00704 26.9422 7.49273C26.846 7.97842 26.6322 8.4331 26.3193 8.81688C26.0065 9.20066 25.6043 9.50183 25.148 9.69396C24.6 9.9231 23.996 9.98346 23.4135 9.86731C22.8309 9.75115 22.2963 9.46377 21.878 9.04196C21.5637 8.72599 21.323 8.34445 21.1734 7.92462C21.0237 7.5048 20.9687 7.05709 21.0123 6.61352C21.0558 6.16995 21.1969 5.7415 21.4254 5.35882C21.6539 4.97615 21.9642 4.64872 22.334 4.39996L22.332 4.39796ZM23.292 7.61796C23.4798 7.80494 23.7342 7.90966 23.9991 7.9091C24.1304 7.90882 24.2602 7.8827 24.3813 7.83223C24.5025 7.78177 24.6124 7.70794 24.705 7.61496C24.7976 7.52198 24.871 7.41168 24.9209 7.29036C24.9709 7.16903 24.9964 7.03905 24.9962 6.90784C24.9959 6.77663 24.9698 6.64676 24.9193 6.52565C24.8688 6.40453 24.795 6.29454 24.702 6.20196C24.5158 6.01468 24.2641 5.90711 24 5.90196C23.8681 5.90169 23.7375 5.92757 23.6156 5.97811C23.4938 6.02864 23.3832 6.10283 23.2902 6.19638C23.1972 6.28993 23.1237 6.40098 23.0739 6.52312C23.0241 6.64526 22.999 6.77606 23 6.90796C23.0007 7.17432 23.1055 7.42986 23.292 7.61996V7.61796ZM6.38002 24.974H10V26.984H6.38002C5.74631 26.9782 5.14072 26.7215 4.69602 26.27C4.24961 25.8168 3.99957 25.2061 4.00002 24.57V20.95C3.73075 20.941 3.46609 20.8775 3.22203 20.7634C2.97798 20.6492 2.75958 20.4868 2.58002 20.286C2.38923 20.0927 2.23949 19.8628 2.13982 19.6102C2.04015 19.3576 1.99259 19.0874 2.00002 18.816V14.452C2.00602 13.508 2.38002 12.606 3.04002 11.936C3.69802 11.274 4.58802 10.896 5.52002 10.89H9.20002C8.70364 11.4811 8.32973 12.165 8.10002 12.902H5.52002C5.1141 12.9136 4.72788 13.0795 4.44002 13.366C4.15727 13.6567 3.99936 14.0464 4.00002 14.452V18.916H6.00002V24.568C5.99538 24.6224 6.00185 24.6773 6.01904 24.7292C6.03623 24.7811 6.06378 24.829 6.10002 24.87C6.18042 24.9321 6.27846 24.9671 6.38002 24.97V24.974ZM20.98 11.938C20.6528 11.6075 20.2634 11.345 19.8344 11.1655C19.4054 10.986 18.9451 10.893 18.48 10.892H13.52C12.5877 10.8994 11.6961 11.2754 11.04 11.938C10.38 12.608 10.006 13.51 10 14.454V20.81C9.99719 21.3557 10.2049 21.8815 10.58 22.278C10.7598 22.4786 10.9782 22.6408 11.2223 22.7549C11.4663 22.869 11.7308 22.9326 12 22.942V27.588C11.9981 27.9051 12.059 28.2194 12.1792 28.5129C12.2993 28.8064 12.4763 29.0732 12.7 29.298C13.06 29.634 13.514 29.852 14 29.922H18C18.5626 29.8481 19.078 29.5689 19.4471 29.1381C19.8163 28.7073 20.0132 28.1552 20 27.588V22.94C20.2693 22.931 20.5339 22.8675 20.778 22.7534C21.0221 22.6392 21.2405 22.4768 21.42 22.276C21.6107 22.083 21.7603 21.8535 21.86 21.6012C21.9597 21.3489 22.0073 21.0791 22 20.808V14.452C22.0014 13.5123 21.6353 12.6094 20.98 11.936V11.938ZM20 20.908H18V27.588C17.9981 27.6934 17.955 27.7939 17.88 27.868C17.8459 27.9084 17.8028 27.9402 17.7542 27.9611C17.7056 27.9819 17.6528 27.9911 17.6 27.988H14.38C14.2755 27.9831 14.1766 27.9394 14.1026 27.8654C14.0286 27.7914 13.9849 27.6925 13.98 27.588V20.908H12V14.452C12 14.046 12.158 13.656 12.44 13.366C12.7279 13.0795 13.1141 12.9136 13.52 12.902H18.48C18.783 12.9073 19.0778 13.001 19.3283 13.1715C19.5788 13.3421 19.774 13.582 19.89 13.862C19.9662 14.0492 20.0036 14.2499 20 14.452V20.908V20.908ZM25.62 26.982H22V24.972H25.6C25.7016 24.9691 25.7996 24.9341 25.88 24.872C25.9203 24.8326 25.9518 24.7852 25.9725 24.7328C25.9932 24.6804 26.0025 24.6242 26 24.568V18.916H28V14.452C28.0007 14.0464 27.8428 13.6567 27.56 13.366C27.2722 13.0795 26.8859 12.9136 26.48 12.902H23.9C23.6704 12.165 23.2965 11.481 22.8 10.89H26.48C27.4122 10.8985 28.3033 11.2744 28.96 11.936C29.62 12.606 29.994 13.508 30 14.452V18.816C30 19.362 29.794 19.886 29.422 20.282C29.05 20.68 28.542 20.918 28 20.948V24.568C28 25.206 27.75 25.816 27.304 26.268C26.8593 26.7195 26.2537 26.9762 25.62 26.982V26.982ZM8.00002 3.88996C7.40488 3.88927 6.82308 4.06632 6.32921 4.39842C5.83534 4.73051 5.4519 5.20253 5.22802 5.75396C5.00208 6.3052 4.94343 6.91075 5.05937 7.49511C5.17532 8.07946 5.46073 8.61675 5.88002 9.03996C6.29915 9.46269 6.83478 9.75087 7.4185 9.86771C8.00221 9.98454 8.60749 9.92472 9.15704 9.69589C9.70659 9.46705 10.1754 9.07959 10.5037 8.583C10.832 8.08641 11.0048 7.50323 11 6.90796C11 6.10796 10.684 5.33996 10.12 4.77396C9.8423 4.49423 9.51205 4.27213 9.14823 4.12042C8.78441 3.96872 8.3942 3.89039 8.00002 3.88996V3.88996ZM8.00002 7.91396C7.86812 7.91423 7.73747 7.88835 7.61563 7.83781C7.49379 7.78728 7.38318 7.71309 7.29019 7.61954C7.1972 7.52599 7.12367 7.41494 7.07387 7.2928C7.02406 7.17066 6.99896 7.03986 7.00002 6.90796C7.00054 6.64235 7.10587 6.38768 7.29313 6.1993C7.48038 6.01092 7.73442 5.90407 8.00002 5.90196C8.26482 5.90662 8.51737 6.0143 8.70407 6.20212C8.89078 6.38995 8.99694 6.64314 9.00002 6.90796C8.9995 7.17357 8.89417 7.42824 8.70691 7.61662C8.51966 7.805 8.26562 7.91185 8.00002 7.91396V7.91396Z" fill="#008000"/>
</svg>
