<svg width="30" height="26" viewBox="0 0 30 26" fill="none" xmlns="http://www.w3.org/2000/svg">
<path d="M19.788 20L23.252 26H20.944L17.48 20H12.532L9.068 26H6.76L10.224 20H4C3.73478 20 3.48043 19.8946 3.29289 19.7071C3.10536 19.5196 3 19.2652 3 19V2H1C0.734784 2 0.48043 1.89464 0.292893 1.70711C0.105357 1.51957 0 1.26522 0 1C0 0.734784 0.105357 0.48043 0.292893 0.292893C0.48043 0.105357 0.734784 0 1 0H29C29.2652 0 29.5196 0.105357 29.7071 0.292893C29.8946 0.48043 30 0.734784 30 1C30 1.26522 29.8946 1.51957 29.7071 1.70711C29.5196 1.89464 29.2652 2 29 2H27V19C27 19.2652 26.8946 19.5196 26.7071 19.7071C26.5196 19.8946 26.2652 20 26 20H19.788ZM25 2H5V18H25V2ZM10 10C10.2652 10 10.5196 10.1054 10.7071 10.2929C10.8946 10.4804 11 10.7348 11 11V13C11 13.2652 10.8946 13.5196 10.7071 13.7071C10.5196 13.8946 10.2652 14 10 14C9.73478 14 9.48043 13.8946 9.29289 13.7071C9.10536 13.5196 9 13.2652 9 13V11C9 10.7348 9.10536 10.4804 9.29289 10.2929C9.48043 10.1054 9.73478 10 10 10V10ZM15 8C15.2652 8 15.5196 8.10536 15.7071 8.29289C15.8946 8.48043 16 8.73478 16 9V13C16 13.2652 15.8946 13.5196 15.7071 13.7071C15.5196 13.8946 15.2652 14 15 14C14.7348 14 14.4804 13.8946 14.2929 13.7071C14.1054 13.5196 14 13.2652 14 13V9C14 8.73478 14.1054 8.48043 14.2929 8.29289C14.4804 8.10536 14.7348 8 15 8V8ZM20 6C20.2652 6 20.5196 6.10536 20.7071 6.29289C20.8946 6.48043 21 6.73478 21 7V13C21 13.2652 20.8946 13.5196 20.7071 13.7071C20.5196 13.8946 20.2652 14 20 14C19.7348 14 19.4804 13.8946 19.2929 13.7071C19.1054 13.5196 19 13.2652 19 13V7C19 6.73478 19.1054 6.48043 19.2929 6.29289C19.4804 6.10536 19.7348 6 20 6Z" fill="#008000"/>
</svg>
