<svg width="26" height="26" viewBox="0 0 26 26" fill="none" xmlns="http://www.w3.org/2000/svg">
<path d="M6.0534 24.9667L13.1667 21.78M1.66674 15.6667C1.29296 15.265 1.0111 14.7869 0.840712 14.2654C0.670328 13.7438 0.615511 13.1915 0.680069 12.6467C0.806736 11.66 4.0934 4.73999 4.7534 3.31333C4.79183 3.2165 4.85844 3.13345 4.94462 3.07493C5.0308 3.01642 5.13257 2.98513 5.23674 2.98513C5.3409 2.98513 5.44267 3.01642 5.52885 3.07493C5.61503 3.13345 5.68165 3.2165 5.72007 3.31333L9.7734 12.72C9.7734 13.9329 9.29157 15.0962 8.4339 15.9538C7.57624 16.8115 6.41299 17.2933 5.20007 17.2933C4.53099 17.2793 3.87197 17.1277 3.26407 16.8478C2.65618 16.5679 2.11243 16.1659 1.66674 15.6667V15.6667ZM20.8201 19.3733C20.1378 19.3703 19.4639 19.2232 18.8423 18.9417C18.2208 18.6603 17.6657 18.2508 17.2134 17.74C16.8386 17.3402 16.5555 16.8635 16.384 16.343C16.2124 15.8226 16.1565 15.271 16.2201 14.7267C16.3534 13.74 19.6334 6.81333 20.3001 5.39333C20.3423 5.30157 20.4099 5.22387 20.495 5.1695C20.5801 5.11513 20.6791 5.08637 20.7801 5.08666C20.8838 5.08929 20.9847 5.12141 21.0709 5.17925C21.1571 5.2371 21.225 5.31829 21.2667 5.41333L25.3201 14.8133C25.3185 16.0138 24.8464 17.1658 24.0051 18.022C23.1638 18.8783 22.0203 19.3706 20.8201 19.3933V19.3733ZM2.92674 1.03333L23.4067 3.69999L2.92674 1.03333ZM13.1667 21.78V2.36666V21.78ZM20.2801 24.9667L13.1667 21.78L20.2801 24.9667Z" stroke="#008000" stroke-width="0.666667" stroke-linecap="round" stroke-linejoin="round"/>
</svg>
