<svg width="20" height="26" viewBox="0 0 20 26" fill="none" xmlns="http://www.w3.org/2000/svg">
<path d="M15.8049 12.138C15.9263 12.0123 15.9935 11.8439 15.992 11.6691C15.9905 11.4943 15.9203 11.327 15.7967 11.2034C15.6731 11.0798 15.5059 11.0097 15.3311 11.0082C15.1563 11.0067 14.9879 11.0739 14.8622 11.1953L10.0002 16.0573L7.80486 13.862C7.67912 13.7405 7.51072 13.6734 7.33592 13.6749C7.16113 13.6764 6.99392 13.7465 6.87031 13.8701C6.74671 13.9937 6.67659 14.1609 6.67507 14.3357C6.67356 14.5105 6.74075 14.6789 6.86219 14.8047L10.0002 17.9427L15.8049 12.138Z" fill="#008000"/>
<path fill-rule="evenodd" clip-rule="evenodd" d="M19.3335 7.00004V21C19.3335 21.5305 19.1228 22.0392 18.7477 22.4143C18.3726 22.7893 17.8639 23 17.3335 23H5.3335C4.80306 23 4.29436 22.7893 3.91928 22.4143C3.54421 22.0392 3.3335 21.5305 3.3335 21V2.33337C3.3335 1.80294 3.54421 1.29423 3.91928 0.919161C4.29436 0.544088 4.80306 0.333374 5.3335 0.333374H12.6668L19.3335 7.00004ZM12.6668 7.66671C12.49 7.66671 12.3204 7.59647 12.1954 7.47145C12.0704 7.34642 12.0002 7.17685 12.0002 7.00004V1.66671H5.3335C5.15669 1.66671 4.98712 1.73695 4.86209 1.86197C4.73707 1.98699 4.66683 2.15656 4.66683 2.33337V21C4.66683 21.1769 4.73707 21.3464 4.86209 21.4714C4.98712 21.5965 5.15669 21.6667 5.3335 21.6667H17.3335C17.5103 21.6667 17.6799 21.5965 17.8049 21.4714C17.9299 21.3464 18.0002 21.1769 18.0002 21V7.66671H12.6668ZM13.3335 2.88537L16.7815 6.33337H13.3335V2.88537Z" fill="#008000"/>
<path d="M2.00008 4.33337V22.3334C2.00008 22.8638 2.21079 23.3725 2.58587 23.7476C2.96094 24.1227 3.46965 24.3334 4.00008 24.3334H16.6667V25.6667H4.00008C3.11603 25.6667 2.26818 25.3155 1.64306 24.6904C1.01794 24.0653 0.666748 23.2174 0.666748 22.3334V4.33337H2.00008Z" fill="#008000"/>
</svg>
