<svg width="30" height="23" viewBox="0 0 30 23" fill="none" xmlns="http://www.w3.org/2000/svg">
<path d="M26.9999 0.666667C25.5199 0.2 23.8933 0 22.3333 0C19.7333 0 16.9333 0.533333 14.9999 2C13.0666 0.533333 10.2666 0 7.66659 0C5.06659 0 2.26659 0.533333 0.333252 2V22.6667C2.26659 21.2 5.06659 20.6667 7.66659 20.6667C10.2666 20.6667 13.0666 21.2 14.9999 22.6667C16.9333 21.2 19.7333 20.6667 22.3333 20.6667C23.8933 20.6667 25.5199 20.8667 26.9999 21.3333C27.9999 21.6667 28.8666 22.0667 29.6666 22.6667V2C28.8666 1.4 27.9999 1 26.9999 0.666667ZM26.9999 18.6667C25.5333 18.2 23.9333 18 22.3333 18C20.0666 18 16.7999 18.8667 14.9999 20V4.66667C16.7999 3.53333 20.0666 2.66667 22.3333 2.66667C23.9333 2.66667 25.5333 2.86667 26.9999 3.33333V18.6667Z" fill="#008000"/>
</svg>
