<svg width="28" height="24" viewBox="0 0 28 24" fill="none" xmlns="http://www.w3.org/2000/svg">
<path d="M18.6667 12C18.6667 10.5333 17.4667 9.33333 16 9.33333C14.5333 9.33333 13.3333 10.5333 13.3333 12C13.3333 13.4667 14.5333 14.6667 16 14.6667C17.4667 14.6667 18.6667 13.4667 18.6667 12ZM16 0C12.8174 0 9.76516 1.26428 7.51472 3.51472C5.26428 5.76516 4 8.8174 4 12H0L5.33333 17.3333L10.6667 12H6.66667C6.66667 6.84 10.84 2.66667 16 2.66667C21.16 2.66667 25.3333 6.84 25.3333 12C25.3351 13.7144 24.8644 15.3961 23.9728 16.8604C23.0812 18.3247 21.8032 19.5149 20.2793 20.3003C18.7554 21.0857 17.0445 21.4358 15.3346 21.3123C13.6246 21.1887 11.9819 20.5963 10.5867 19.6L8.69333 21.52C10.2062 22.6809 11.9739 23.4646 13.8501 23.8061C15.7262 24.1475 17.6567 24.0369 19.4816 23.4835C21.3065 22.93 22.9732 21.9496 24.3436 20.6235C25.714 19.2974 26.7486 17.6638 27.3617 15.858C27.9748 14.0523 28.1487 12.1265 27.869 10.2401C27.5894 8.35379 26.8642 6.56125 25.7535 5.01109C24.6429 3.46093 23.1788 2.19777 21.4826 1.32632C19.7864 0.454859 17.907 0.000193355 16 0V0Z" fill="#008000"/>
</svg>
