<svg width="27" height="31" viewBox="0 0 27 31" fill="none" xmlns="http://www.w3.org/2000/svg">
<path d="M23.5732 0H3.0932C1.6852 0 0.533203 1.152 0.533203 2.56V28.16C0.533203 29.568 1.6852 30.72 3.0932 30.72H23.5732C24.9812 30.72 26.1332 29.568 26.1332 28.16V2.56C26.1332 1.152 24.9812 0 23.5732 0ZM8.2132 25.6C8.2132 26.304 7.6372 26.88 6.9332 26.88H4.3732C3.6692 26.88 3.0932 26.304 3.0932 25.6V24.96C3.0932 24.256 3.6692 23.68 4.3732 23.68H6.9332C7.6372 23.68 8.2132 24.256 8.2132 24.96V25.6ZM8.2132 20.48C8.2132 21.184 7.6372 21.76 6.9332 21.76H4.3732C3.6692 21.76 3.0932 21.184 3.0932 20.48V19.84C3.0932 19.136 3.6692 18.56 4.3732 18.56H6.9332C7.6372 18.56 8.2132 19.136 8.2132 19.84V20.48ZM8.2132 15.36C8.2132 16.064 7.6372 16.64 6.9332 16.64H4.3732C3.6692 16.64 3.0932 16.064 3.0932 15.36V14.72C3.0932 14.016 3.6692 13.44 4.3732 13.44H6.9332C7.6372 13.44 8.2132 14.016 8.2132 14.72V15.36ZM15.8932 25.6C15.8932 26.304 15.3172 26.88 14.6132 26.88H12.0532C11.3492 26.88 10.7732 26.304 10.7732 25.6V24.96C10.7732 24.256 11.3492 23.68 12.0532 23.68H14.6132C15.3172 23.68 15.8932 24.256 15.8932 24.96V25.6ZM15.8932 20.48C15.8932 21.184 15.3172 21.76 14.6132 21.76H12.0532C11.3492 21.76 10.7732 21.184 10.7732 20.48V19.84C10.7732 19.136 11.3492 18.56 12.0532 18.56H14.6132C15.3172 18.56 15.8932 19.136 15.8932 19.84V20.48ZM15.8932 15.36C15.8932 16.064 15.3172 16.64 14.6132 16.64H12.0532C11.3492 16.64 10.7732 16.064 10.7732 15.36V14.72C10.7732 14.016 11.3492 13.44 12.0532 13.44H14.6132C15.3172 13.44 15.8932 14.016 15.8932 14.72V15.36ZM23.5732 25.6C23.5732 26.304 22.9972 26.88 22.2932 26.88H19.7332C19.0292 26.88 18.4532 26.304 18.4532 25.6V24.96C18.4532 24.256 19.0292 23.68 19.7332 23.68H22.2932C22.9972 23.68 23.5732 24.256 23.5732 24.96V25.6ZM23.5732 20.48C23.5732 21.184 22.9972 21.76 22.2932 21.76H19.7332C19.0292 21.76 18.4532 21.184 18.4532 20.48V19.84C18.4532 19.136 19.0292 18.56 19.7332 18.56H22.2932C22.9972 18.56 23.5732 19.136 23.5732 19.84V20.48ZM23.5732 15.36C23.5732 16.064 22.9972 16.64 22.2932 16.64H19.7332C19.0292 16.64 18.4532 16.064 18.4532 15.36V14.72C18.4532 14.016 19.0292 13.44 19.7332 13.44H22.2932C22.9972 13.44 23.5732 14.016 23.5732 14.72V15.36ZM23.5732 9.6C23.5732 10.304 22.9972 10.88 22.2932 10.88H4.3732C3.6692 10.88 3.0932 10.304 3.0932 9.6V4.48C3.0932 3.776 3.6692 3.2 4.3732 3.2H22.2932C22.9972 3.2 23.5732 3.776 23.5732 4.48V9.6Z" fill="#008000"/>
</svg>
