<svg width="27" height="25" viewBox="0 0 27 25" fill="none" xmlns="http://www.w3.org/2000/svg">
<path d="M13.6532 0.311956C13.5051 0.31201 13.3588 0.345066 13.2251 0.408721C13.0913 0.472376 12.9734 0.565032 12.8799 0.679956L12.8026 0.737289C11.3528 0.296045 9.81056 0.25556 8.3396 0.62013C6.86865 0.984699 5.52384 1.74072 4.44791 2.80796C3.49426 3.75234 2.7851 4.91487 2.38179 6.19496C1.97848 7.47506 1.89317 8.83414 2.13324 10.1546L2.11324 10.1746L0.835911 11.4426C0.572142 11.7039 0.362765 12.0149 0.219876 12.3577C0.0769873 12.7004 0.00341797 13.068 0.00341797 13.4393C0.00341797 13.8106 0.0769873 14.1782 0.219876 14.5209C0.362765 14.8636 0.572142 15.1746 0.835911 15.436C1.14614 15.7441 1.52316 15.9766 1.93773 16.1156C2.35231 16.2546 2.79332 16.2962 3.22658 16.2373C3.38109 16.7995 3.70495 17.3004 4.15414 17.6721C4.60334 18.0438 5.15608 18.2681 5.73725 18.3146C5.79699 18.9983 6.10228 19.6373 6.59668 20.1133C7.09107 20.5893 7.74111 20.8702 8.42658 20.904C8.46124 21.58 8.73725 22.244 9.25591 22.7586C10.2692 23.7666 11.8586 23.8533 12.9719 23.0213L13.4879 23.5333C14.025 24.0655 14.7505 24.364 15.5066 24.364C16.2627 24.364 16.9882 24.0655 17.5252 23.5333C18.0186 23.0426 18.2946 22.416 18.3519 21.776C19.0173 21.7196 19.6414 21.4304 20.1145 20.9592C20.5877 20.488 20.8795 19.8651 20.9386 19.2C21.5247 19.1461 22.0795 18.9113 22.5262 18.5281C22.9729 18.145 23.2895 17.6323 23.4319 17.0613C23.8587 17.1124 24.2915 17.0663 24.6979 16.9264C25.1043 16.7864 25.4738 16.5563 25.7786 16.2533C26.0421 15.992 26.2514 15.6811 26.3941 15.3385C26.5369 14.9959 26.6104 14.6284 26.6104 14.2573C26.6104 13.8861 26.5369 13.5187 26.3941 13.1761C26.2514 12.8335 26.0421 12.5226 25.7786 12.2613L24.6679 11.156L24.8972 10.268C25.3934 8.33551 25.1435 6.28709 24.1972 4.53062C23.5088 3.25547 22.488 2.19048 21.2431 1.44867C19.9982 0.706859 18.5757 0.315904 17.1266 0.317289H14.9839C14.8924 0.313292 14.8008 0.311514 14.7092 0.311956H13.6546H13.6532ZM17.5532 6.90529L22.1719 11.4946L22.1759 11.5L22.1946 11.5173L24.3612 13.6706C24.4386 13.7475 24.5001 13.8389 24.542 13.9395C24.5839 14.0402 24.6055 14.1482 24.6055 14.2573C24.6055 14.3664 24.5839 14.4743 24.542 14.575C24.5001 14.6757 24.4386 14.7671 24.3612 14.844C24.204 14.9995 23.9917 15.0867 23.7706 15.0867C23.5494 15.0867 23.3372 14.9995 23.1799 14.844L21.0132 12.6906C20.8245 12.5037 20.5696 12.3988 20.3039 12.3988C20.0383 12.3988 19.7833 12.5037 19.5946 12.6906L19.5732 12.7133C19.4802 12.8055 19.4063 12.9153 19.3559 13.0362C19.3054 13.1572 19.2795 13.2869 19.2795 13.418C19.2795 13.549 19.3054 13.6787 19.3559 13.7997C19.4063 13.9206 19.4802 14.0304 19.5732 14.1226L21.2612 15.8013C21.3386 15.8781 21.4001 15.9695 21.442 16.0702C21.4839 16.1709 21.5055 16.2789 21.5055 16.388C21.5055 16.497 21.4839 16.605 21.442 16.7057C21.4001 16.8064 21.3386 16.8978 21.2612 16.9746C21.1189 17.1163 20.9304 17.2023 20.7301 17.217C20.5297 17.2317 20.3308 17.1741 20.1692 17.0546C19.9753 16.9094 19.7355 16.8389 19.4939 16.8561C19.2522 16.8732 19.0248 16.9768 18.8532 17.148C18.6824 17.3187 18.5798 17.5459 18.5646 17.787C18.5493 18.0281 18.6226 18.2664 18.7706 18.4573C18.8936 18.617 18.954 18.8161 18.9405 19.0172C18.927 19.2183 18.8405 19.4075 18.6972 19.5493C18.5523 19.6929 18.3601 19.7789 18.1565 19.7911C17.9528 19.8034 17.7517 19.7411 17.5906 19.616C17.3978 19.4656 17.157 19.3904 16.9129 19.4044C16.6689 19.4184 16.4382 19.5206 16.2639 19.692C16.0902 19.8629 15.9855 20.0918 15.9697 20.335C15.954 20.5782 16.0283 20.8187 16.1786 21.0106C16.3045 21.1728 16.3668 21.3754 16.3535 21.5803C16.3402 21.7852 16.2524 21.9781 16.1066 22.1226C15.9468 22.2806 15.7312 22.3692 15.5066 22.3692C15.2819 22.3692 15.0663 22.2806 14.9066 22.1226L14.4106 21.6306L14.5506 21.4906C14.8141 21.2293 15.0234 20.9184 15.1661 20.5758C15.3089 20.2332 15.3824 19.8658 15.3824 19.4946C15.3824 19.1235 15.3089 18.756 15.1661 18.4134C15.0234 18.0708 14.8141 17.7599 14.5506 17.4986C14.0519 17.0022 13.3867 16.7086 12.6839 16.6746C12.6459 15.9896 12.361 15.3415 11.882 14.8503C11.4031 14.3591 10.7624 14.058 10.0786 14.0026C10.024 13.3348 9.73215 12.7086 9.25591 12.2373C8.94568 11.9292 8.56866 11.6966 8.15409 11.5576C7.73951 11.4187 7.2985 11.377 6.86524 11.436C6.69599 10.8223 6.32572 10.2831 5.81372 9.90477C5.30172 9.52645 4.67759 9.33085 4.04124 9.34929C3.93999 8.41147 4.05153 7.46288 4.36756 6.57412C4.68359 5.68537 5.19597 4.87932 5.86658 4.21596C6.49149 3.59514 7.23863 3.111 8.06057 2.79425C8.88252 2.4775 9.76133 2.33506 10.6412 2.37596L8.64524 3.88662C8.32088 4.13211 8.04827 4.43931 7.84309 4.79055C7.6379 5.14179 7.5042 5.53014 7.44968 5.93325C7.39515 6.33636 7.42088 6.74628 7.52538 7.13941C7.62988 7.53254 7.81109 7.90112 8.05858 8.22396C8.55842 8.87552 9.29563 9.30299 10.1094 9.41315C10.9232 9.5233 11.7475 9.30719 12.4026 8.81196L14.9212 6.90396H17.5532V6.90529ZM9.85191 5.48262L14.0372 2.31196H14.7092C14.7924 2.31135 14.8756 2.31358 14.9586 2.31862H17.1266C18.2144 2.31716 19.2823 2.61013 20.217 3.16648C21.1518 3.72282 21.9185 4.52178 22.4359 5.47862C23.0959 6.70529 23.3026 8.11596 23.0279 9.47196L18.7466 5.21062C18.6534 5.11413 18.5417 5.03737 18.4183 4.98491C18.2948 4.93246 18.1621 4.90538 18.0279 4.90529H14.5866C14.3685 4.90519 14.1564 4.97636 13.9826 5.10796L11.1959 7.21862C10.9622 7.39498 10.6683 7.47193 10.3782 7.43273C10.088 7.39353 9.8251 7.24135 9.64658 7.00929C9.55939 6.89568 9.49555 6.76594 9.45873 6.62755C9.42192 6.48915 9.41285 6.34484 9.43206 6.20293C9.45128 6.06102 9.49838 5.92431 9.57067 5.80068C9.64295 5.67706 9.73899 5.56896 9.85325 5.48262H9.85191ZM5.37991 16.0893C5.30251 16.0124 5.24108 15.9211 5.19916 15.8204C5.15724 15.7197 5.13565 15.6117 5.13565 15.5026C5.13565 15.3936 5.15724 15.2856 5.19916 15.1849C5.24108 15.0842 5.30251 14.9928 5.37991 14.916L6.65591 13.6466C6.81317 13.4911 7.02541 13.4039 7.24658 13.4039C7.46775 13.4039 7.67999 13.4911 7.83724 13.6466C7.99175 13.8 8.07953 14.0081 8.08153 14.2258C8.08352 14.4434 7.99958 14.6531 7.84791 14.8093L7.83724 14.82L6.56125 16.088L6.54925 16.1C6.39115 16.2505 6.18068 16.3335 5.96242 16.3315C5.74415 16.3295 5.53523 16.2426 5.37991 16.0893V16.0893ZM4.72524 11.5973C4.8764 11.7534 4.9598 11.9628 4.9573 12.18C4.9548 12.3973 4.86661 12.6047 4.71191 12.7573L3.43591 14.0266C3.27866 14.1821 3.06641 14.2694 2.84524 14.2694C2.62408 14.2694 2.41183 14.1821 2.25458 14.0266C2.17718 13.9498 2.11574 13.8584 2.07382 13.7577C2.0319 13.657 2.01032 13.549 2.01032 13.44C2.01032 13.3309 2.0319 13.2229 2.07382 13.1222C2.11574 13.0215 2.17718 12.9301 2.25458 12.8533L3.53191 11.5853C3.68917 11.4298 3.90141 11.3425 4.12258 11.3425C4.34375 11.3425 4.55599 11.4298 4.71324 11.5853L4.72524 11.5973V11.5973ZM11.8559 21.3493C11.6987 21.5048 11.4864 21.592 11.2652 21.592C11.0441 21.592 10.8318 21.5048 10.6746 21.3493C10.5972 21.2725 10.5357 21.1811 10.4938 21.0804C10.4519 20.9797 10.4303 20.8717 10.4303 20.7626C10.4303 20.6536 10.4519 20.5456 10.4938 20.4449C10.5357 20.3442 10.5972 20.2528 10.6746 20.176L11.9506 18.908C12.1078 18.7524 12.3201 18.6652 12.5412 18.6652C12.7624 18.6652 12.9747 18.7524 13.1319 18.908C13.2093 18.9848 13.2707 19.0762 13.3127 19.1769C13.3546 19.2776 13.3762 19.3856 13.3762 19.4946C13.3762 19.6037 13.3546 19.7117 13.3127 19.8124C13.2707 19.9131 13.2093 20.0045 13.1319 20.0813L11.8559 21.3493ZM9.16124 18.672C9.00416 18.8278 8.79185 18.9152 8.57058 18.9152C8.3493 18.9152 8.137 18.8278 7.97991 18.672C7.82523 18.5188 7.73721 18.3108 7.73496 18.0931C7.73271 17.8754 7.81642 17.6656 7.96791 17.5093L7.97991 17.4986L9.25591 16.2306L9.26658 16.2186C9.42491 16.0679 9.63576 15.9848 9.85435 15.9871C10.0729 15.9893 10.282 16.0767 10.4372 16.2306C10.5146 16.3075 10.5761 16.3989 10.618 16.4995C10.6599 16.6002 10.6815 16.7082 10.6815 16.8173C10.6815 16.9264 10.6599 17.0343 10.618 17.135C10.5761 17.2357 10.5146 17.3271 10.4372 17.404L9.16124 18.672V18.672Z" fill="#008000"/>
</svg>
