<svg width="23" height="27" viewBox="0 0 23 27" fill="none" xmlns="http://www.w3.org/2000/svg">
<path fill-rule="evenodd" clip-rule="evenodd" d="M3.3333 0.559937C2.48461 0.559937 1.67068 0.897078 1.07056 1.49719C0.470443 2.09731 0.133301 2.91124 0.133301 3.75994V26.1599L5.7333 22.9599L11.3333 26.1599L16.9333 22.9599L22.5333 26.1599V3.75994C22.5333 2.91124 22.1962 2.09731 21.596 1.49719C20.9959 0.897078 20.182 0.559937 19.3333 0.559937H3.3333ZM7.3333 5.35994C6.69678 5.35994 6.08633 5.61279 5.63624 6.06288C5.18616 6.51297 4.9333 7.12342 4.9333 7.75994C4.9333 8.39646 5.18616 9.00691 5.63624 9.45699C6.08633 9.90708 6.69678 10.1599 7.3333 10.1599C7.96982 10.1599 8.58027 9.90708 9.03036 9.45699C9.48044 9.00691 9.7333 8.39646 9.7333 7.75994C9.7333 7.12342 9.48044 6.51297 9.03036 6.06288C8.58027 5.61279 7.96982 5.35994 7.3333 5.35994V5.35994ZM17.2645 5.82874C16.9645 5.52878 16.5576 5.36028 16.1333 5.36028C15.709 5.36028 15.3021 5.52878 15.0021 5.82874L5.4021 15.4287C5.24928 15.5763 5.12739 15.7529 5.04354 15.9481C4.95968 16.1433 4.91555 16.3532 4.9137 16.5657C4.91185 16.7781 4.95234 16.9888 5.03279 17.1855C5.11324 17.3821 5.23204 17.5607 5.38227 17.711C5.5325 17.8612 5.71114 17.98 5.90777 18.0605C6.10441 18.1409 6.3151 18.1814 6.52754 18.1795C6.73999 18.1777 6.94994 18.1336 7.14515 18.0497C7.34035 17.9658 7.51691 17.844 7.6645 17.6911L17.2645 8.09114C17.5645 7.79109 17.733 7.3842 17.733 6.95994C17.733 6.53567 17.5645 6.12878 17.2645 5.82874V5.82874ZM15.3333 13.3599C14.6968 13.3599 14.0863 13.6128 13.6362 14.0629C13.1862 14.513 12.9333 15.1234 12.9333 15.7599C12.9333 16.3965 13.1862 17.0069 13.6362 17.457C14.0863 17.9071 14.6968 18.1599 15.3333 18.1599C15.9698 18.1599 16.5803 17.9071 17.0304 17.457C17.4804 17.0069 17.7333 16.3965 17.7333 15.7599C17.7333 15.1234 17.4804 14.513 17.0304 14.0629C16.5803 13.6128 15.9698 13.3599 15.3333 13.3599V13.3599Z" fill="#008000"/>
</svg>
