<svg width="32" height="32" viewBox="0 0 32 32" fill="none" xmlns="http://www.w3.org/2000/svg">
<path d="M16 2.66663C18.2844 2.66653 20.5214 3.31851 22.4481 4.54595C24.3748 5.77338 25.9111 7.52526 26.8764 9.59571C27.8418 11.6662 28.1961 13.9691 27.8977 16.234C27.5993 18.4989 26.6607 20.6315 25.192 22.3813C26.8653 23.488 27.9027 24.9013 27.9933 26.4466L28 26.6666L16 29.3333L4.00001 26.6666L4.00668 26.4466C4.09601 24.9 5.13468 23.4866 6.80668 22.38C4.99002 20.2207 3.99581 17.4884 4.00001 14.6666C4.00001 11.484 5.2643 8.43178 7.51473 6.18134C9.76517 3.93091 12.8174 2.66663 16 2.66663V2.66663ZM16 5.33329C13.5247 5.33329 11.1507 6.31662 9.40035 8.06696C7.65001 9.8173 6.66668 12.1913 6.66668 14.6666C6.66668 16.756 7.35201 18.7333 8.59335 20.348L8.84935 20.6666L10.7733 22.956L8.15735 24.688L7.97468 24.8173L16 26.6013L24.024 24.8173L23.9587 24.7693L23.7213 24.6053L21.2267 22.956L23.1507 20.6653C24.5644 18.9866 25.3377 16.8613 25.3333 14.6666C25.3333 12.1913 24.35 9.8173 22.5997 8.06696C20.8493 6.31662 18.4754 5.33329 16 5.33329V5.33329ZM16 17.3333C17.84 17.3333 19.3333 18.2293 19.3333 19.3333C19.3333 20.4373 17.84 21.3333 16 21.3333C14.16 21.3333 12.6667 20.4373 12.6667 19.3333C12.6667 18.2293 14.16 17.3333 16 17.3333ZM12 10.6666C13.4733 10.6666 14.6667 11.5626 14.6667 12.6666C14.6667 13.7706 13.4733 14.6666 12 14.6666C10.5267 14.6666 9.33335 13.7706 9.33335 12.6666C9.33335 11.5626 10.5267 10.6666 12 10.6666ZM20 10.6666C21.4733 10.6666 22.6667 11.5626 22.6667 12.6666C22.6667 13.7706 21.4733 14.6666 20 14.6666C18.5267 14.6666 17.3333 13.7706 17.3333 12.6666C17.3333 11.5626 18.5267 10.6666 20 10.6666Z" fill="#008000"/>
</svg>
