<svg width="32" height="32" viewBox="0 0 32 32" fill="none" xmlns="http://www.w3.org/2000/svg">
<path d="M15.9999 11.3334C14.7866 11.3334 12.3333 11.9467 12.3333 13.1734V19.3334H14.3333V25.3334H17.6666V19.3334H19.6666V13.1734C19.6666 11.96 17.2133 11.3334 15.9999 11.3334Z" fill="#008000"/>
<path d="M16.0001 2.66663C8.62675 2.66663 2.66675 8.62663 2.66675 16C2.66675 23.3733 8.62675 29.3333 16.0001 29.3333C23.3734 29.3333 29.3334 23.36 29.3334 16C29.3334 8.63996 23.3601 2.66663 16.0001 2.66663ZM16.0001 26.6666C10.1067 26.6666 5.33341 21.8933 5.33341 16C5.33341 10.1066 10.1067 5.33329 16.0001 5.33329C21.8934 5.33329 26.6667 10.1066 26.6667 16C26.6667 21.8933 21.8934 26.6666 16.0001 26.6666Z" fill="#008000"/>
<path d="M16 10.6666C17.1046 10.6666 18 9.7712 18 8.66663C18 7.56206 17.1046 6.66663 16 6.66663C14.8954 6.66663 14 7.56206 14 8.66663C14 9.7712 14.8954 10.6666 16 10.6666Z" fill="#008000"/>
</svg>
