<svg width="22" height="30" viewBox="0 0 22 30" fill="none" xmlns="http://www.w3.org/2000/svg">
<path d="M8.66667 28.6667H14M6 19.3333H16.6667M2 11.3333C2 8.85798 2.98333 6.48401 4.73367 4.73367C6.48401 2.98333 8.85798 2 11.3333 2C13.8087 2 16.1827 2.98333 17.933 4.73367C19.6833 6.48401 20.6667 8.85798 20.6667 11.3333C20.6675 12.8361 20.3041 14.3167 19.6074 15.6482C18.9108 16.9797 17.9017 18.1225 16.6667 18.9787L15.944 22.4C15.8483 23.0306 15.5298 23.6061 15.0461 24.0219C14.5625 24.4378 13.9458 24.6665 13.308 24.6667H9.35867C8.72083 24.6665 8.10415 24.4378 7.62052 24.0219C7.13689 23.6061 6.81835 23.0306 6.72267 22.4L6 18.9933C4.76455 18.1342 3.75543 16.9887 3.05887 15.6548C2.36231 14.3209 1.99901 12.8382 2 11.3333Z" stroke="white" stroke-width="2.66667" stroke-linecap="round" stroke-linejoin="round"/>
</svg>
