<svg width="32" height="32" viewBox="0 0 32 32" fill="none" xmlns="http://www.w3.org/2000/svg">
<path d="M10.6667 20.0001H21.3333M13.3333 29.3334H18.6667H13.3333ZM6.66667 12.0001C6.66667 9.52473 7.65 7.15076 9.40034 5.40042C11.1507 3.65008 13.5247 2.66675 16 2.66675C18.4754 2.66675 20.8493 3.65008 22.5997 5.40042C24.35 7.15076 25.3333 9.52473 25.3333 12.0001C25.3342 13.5028 24.9708 14.9834 24.2741 16.315C23.5775 17.6465 22.5684 18.7893 21.3333 19.6454L20.6107 23.0667C20.515 23.6974 20.1965 24.2728 19.7128 24.6887C19.2292 25.1046 18.6125 25.3333 17.9747 25.3334H14.0253C13.3875 25.3333 12.7708 25.1046 12.2872 24.6887C11.8036 24.2728 11.485 23.6974 11.3893 23.0667L10.6667 19.6601C9.43122 18.8009 8.4221 17.6554 7.72554 16.3215C7.02898 14.9876 6.66568 13.5049 6.66667 12.0001V12.0001Z" stroke="black" stroke-width="2.66667" stroke-linecap="round" stroke-linejoin="round"/>
</svg>
