<svg width="31" height="14" viewBox="0 0 31 14" fill="none" xmlns="http://www.w3.org/2000/svg">
<path d="M18.5457 2.5725L7.54571 13.5725C7.35457 13.7573 7.0991 13.8606 6.83321 13.8606C6.56733 13.8606 6.31185 13.7573 6.12071 13.5725L0.620714 8.0725C0.461251 7.8782 0.379759 7.63154 0.392089 7.38048C0.404419 7.12943 0.50969 6.89194 0.687425 6.71421C0.865159 6.53647 1.10265 6.4312 1.3537 6.41887C1.60475 6.40654 1.85142 6.48803 2.04571 6.6475L6.83321 11.4475L17.1207 1.1475C17.315 0.988033 17.5617 0.906541 17.8127 0.918871C18.0638 0.931201 18.3013 1.03647 18.479 1.21421C18.6567 1.39194 18.762 1.62943 18.7743 1.88048C18.7867 2.13154 18.7052 2.3782 18.5457 2.5725V2.5725ZM30.0457 1.1475C29.8561 0.959715 29.6001 0.85437 29.3332 0.85437C29.0664 0.85437 28.8103 0.959715 28.6207 1.1475L18.3332 11.4475L16.1207 9.235C15.9305 9.06264 15.6813 8.97003 15.4246 8.97635C15.168 8.98267 14.9237 9.08743 14.7422 9.26894C14.5606 9.45045 14.4559 9.69481 14.4496 9.95143C14.4432 10.208 14.5359 10.4573 14.7082 10.6475L17.6207 13.5725C17.8119 13.7573 18.0673 13.8606 18.3332 13.8606C18.5991 13.8606 18.8546 13.7573 19.0457 13.5725L30.0457 2.5725C30.2335 2.3829 30.3388 2.12684 30.3388 1.86C30.3388 1.59315 30.2335 1.33709 30.0457 1.1475V1.1475Z" fill="#008000"/>
</svg>
